<svg id="Layer_1" data-name="Layer 1" xmlns="http://www.w3.org/2000/svg" viewBox="0 0 273.67 379.95"><defs><style>.cls-1,.cls-4{fill:#333;}.cls-2{fill:#fff;}.cls-2,.cls-3,.cls-5,.cls-7,.cls-8{stroke:#ccc;}.cls-2,.cls-3,.cls-4,.cls-5,.cls-6,.cls-7,.cls-8{stroke-miterlimit:10;}.cls-2,.cls-3,.cls-7,.cls-8{stroke-width:2px;}.cls-3{fill:#e6e6e6;}.cls-4,.cls-6{stroke:#333;}.cls-5,.cls-6{fill:#4d4d4d;}.cls-7{fill:#ffffa7;}.cls-8{fill:#fff058;}</style></defs><title>Artboard 1</title><path class="cls-1" d="M33.44,242.51c14-6.82,28.38-12.72,42.75-18.63L97.74,215l10.78-4.45a43.85,43.85,0,0,0,9.76-5.67,44.82,44.82,0,0,0,8-8,43.68,43.68,0,0,0,5.62-9.82c.37-.87.66-1.78,1-2.67l.92-2.76,1.84-5.53L139.29,165l14.87-44.2,1,.31-14,44.49-3.54,11.1-1.77,5.56-.89,2.77c-.34.94-.63,1.89-1,2.81a44.92,44.92,0,0,1-14.14,19,46.79,46.79,0,0,1-10.31,6.05l-10.76,4.49-21.51,9c-14.34,6-28.67,12-43.38,17.11Z"/><path class="cls-1" d="M85.36,221.22c10.83,6.75,21.36,14,31.84,21.24,1.31.93,2.63,1.76,3.93,2.77.65.5,1.32,1,2,1.49l1.85,1.61a45,45,0,0,1,13.95,25.25,43,43,0,0,1,.67,9.74,22.07,22.07,0,0,1-.18,2.44c-.09.81-.12,1.62-.29,2.42l-.42,2.41-.49,2.34-4,18.73-8.07,37.41-1-.2,7.43-37.55,3.78-18.76.47-2.34.37-2.31a22.74,22.74,0,0,0,.26-2.33c.06-.78.16-1.55.15-2.33l0-2.34-.14-2.33a22.7,22.7,0,0,0-.24-2.33c-.11-.77-.17-1.55-.35-2.31a43.16,43.16,0,0,0-13.4-24.06l-1.76-1.53c-.6-.49-1.25-.93-1.87-1.4-1.21-.94-2.6-1.82-3.89-2.73C105.45,237,95,229.76,84.79,222Z"/><path class="cls-1" d="M33.59,242.26c1.77-14.54,5.78-28.52,9.28-42.63l5.35-21.14,2.68-10.57,1.34-5.28.67-2.65c.2-.86.41-1.7.57-2.56a43,43,0,0,0-1.06-20.79l-6.51-20.8c-2.2-6.93-4.28-13.9-6.42-20.85s-4.26-13.9-6.33-20.87l1-.3q3.62,10.28,7.13,20.61c2.34,6.88,4.74,13.74,7,20.64l6.94,20.68a45.34,45.34,0,0,1,1.55,22.3c-.17.92-.39,1.85-.6,2.76l-.65,2.64-1.3,5.3-2.6,10.58L46.4,200.51c-3.54,14.1-6.57,28.33-11.84,42Z"/><path class="cls-1" d="M139.31,167.85c10.86,1.36,21.66,3.05,32.44,4.86,5.39.9,10.77,1.86,16.15,2.81l4,.72c1.35.23,2.69.46,4.07.77a42.52,42.52,0,0,1,8,2.52,43.58,43.58,0,0,1,7.41,4,41,41,0,0,1,6.53,5.28,43.07,43.07,0,0,1,5.42,6.41,42.54,42.54,0,0,1,4.12,7.29c2.2,5.05,4.26,10.08,6.35,15.14l6.24,15.16-.92.4c-4.54-9.94-9-19.95-13.45-29.88a43.53,43.53,0,0,0-22.63-21.52,39.85,39.85,0,0,0-7.61-2.34c-1.28-.28-2.64-.51-4-.73l-4-.69c-5.39-.92-10.78-1.83-16.16-2.8-10.76-1.93-21.49-4-32.17-6.37Z"/><path class="cls-1" d="M134.36,182.22c-7.6-12.28-14.74-24.82-21.83-37.39l-2.66-4.71c-.88-1.58-1.79-3.11-2.62-4.78A44.16,44.16,0,0,1,103.43,125a45.17,45.17,0,0,1,.4-21.92A46.17,46.17,0,0,1,108,92.8a73.26,73.26,0,0,1,6.32-9l13.28-17.09,26.67-34.1.79.61L128.91,67.79,115.8,85a72.42,72.42,0,0,0-6.08,8.77,45,45,0,0,0-3.9,9.79,43,43,0,0,0-.32,20.91,42.33,42.33,0,0,0,3.67,9.87c.78,1.56,1.72,3.13,2.6,4.7l2.67,4.7c7.11,12.56,14.18,25.13,20.79,38Z"/><path class="cls-2" d="M32.88,72.38A2.91,2.91,0,0,1,34,72.15a3,3,0,0,1,1.16.23c.44-2.23,2.37-4.47,5.2-6a15.27,15.27,0,0,0,.26-2.83c0-5.67-3-10.27-6.62-10.27s-6.62,4.6-6.62,10.27a15.27,15.27,0,0,0,.26,2.83C30.5,67.91,32.43,70.15,32.88,72.38Z"/><path class="cls-2" d="M31.08,75.38a1.9,1.9,0,0,1,0-.25,3,3,0,0,1,.74-1.94c-2-1.11-3.53-3.65-4.12-6.82a15,15,0,0,0-2.61-1.12c-5.4-1.76-10.68-.36-11.81,3.12s2.32,7.72,7.71,9.47a15.19,15.19,0,0,0,2.78.63C26.08,76.25,28.82,75.11,31.08,75.38Z"/><path class="cls-2" d="M33.35,78a3,3,0,0,1-1.86-1.37c-1.67,1.55-4.56,2.23-7.75,1.81a15.07,15.07,0,0,0-1.88,2.14c-3.33,4.59-3.63,10-.67,12.2s8.06.17,11.39-4.41A15.14,15.14,0,0,0,34,86C32.65,83,32.4,80.09,33.35,78Z"/><path class="cls-2" d="M36.58,76.66A3,3,0,0,1,34.71,78c.95,2.06.71,5-.68,7.92a16,16,0,0,0,1.46,2.45C38.82,93,43.92,95,46.88,92.81s2.65-7.61-.68-12.2a15.07,15.07,0,0,0-1.88-2.14C41.13,78.89,38.25,78.21,36.58,76.66Z"/><path class="cls-2" d="M54.82,68.37C53.69,64.89,48.4,63.49,43,65.25a15.08,15.08,0,0,0-2.62,1.12c-.58,3.17-2.13,5.71-4.12,6.82A2.9,2.9,0,0,1,37,75.13c0,.09,0,.17,0,.25,2.26-.27,5,.87,7.33,3.09a15,15,0,0,0,2.78-.63C52.49,76.09,56,71.85,54.82,68.37Z"/><path class="cls-3" d="M31.79,73.19a2.91,2.91,0,0,1,1.09-.81c-.45-2.23-2.38-4.47-5.21-6C28.26,69.54,29.8,72.08,31.79,73.19Z"/><path class="cls-3" d="M31.49,76.66a2.93,2.93,0,0,1-.41-1.28c-2.26-.27-5,.87-7.34,3.09C26.93,78.89,29.82,78.21,31.49,76.66Z"/><path class="cls-3" d="M34.71,78a3,3,0,0,1-.68.08,3.08,3.08,0,0,1-.68-.08c-1,2.06-.7,5,.68,7.92C35.42,83,35.66,80.09,34.71,78Z"/><path class="cls-3" d="M35.19,72.38a2.88,2.88,0,0,1,1.08.81c2-1.11,3.54-3.65,4.12-6.82C37.56,67.91,35.63,70.15,35.19,72.38Z"/><path class="cls-3" d="M37,75.38a2.93,2.93,0,0,1-.41,1.28c1.67,1.55,4.55,2.23,7.74,1.81C42,76.25,39.25,75.11,37,75.38Z"/><path class="cls-4" d="M33,73.66a4.3,4.3,0,0,1-.19,1.06,4.13,4.13,0,0,1-.47,1,3.78,3.78,0,0,1,1,.51,4.22,4.22,0,0,1,.78.74,4.56,4.56,0,0,1,.78-.74,4.16,4.16,0,0,1,.95-.51,4.57,4.57,0,0,1-.47-1,4.3,4.3,0,0,1-.19-1.06A4.75,4.75,0,0,1,34,73.8,4.83,4.83,0,0,1,33,73.66Z"/><path class="cls-5" d="M33,73.66A4.83,4.83,0,0,0,34,73.8a4.75,4.75,0,0,0,1.07-.14,4.63,4.63,0,0,1,.09-1.28A3,3,0,0,0,34,72.15a2.91,2.91,0,0,0-1.15.23A5,5,0,0,1,33,73.66Z"/><path class="cls-5" d="M32.77,74.72A4.3,4.3,0,0,0,33,73.66a5.3,5.3,0,0,1-1.17-.47,3,3,0,0,0-.74,1.94,1.9,1.9,0,0,0,0,.25,4.46,4.46,0,0,1,1.22.31A4.13,4.13,0,0,0,32.77,74.72Z"/><path class="cls-5" d="M33.25,76.2a3.78,3.78,0,0,0-1-.51,4.64,4.64,0,0,1-.81,1A3,3,0,0,0,33.35,78,5.26,5.26,0,0,1,34,76.94,4.22,4.22,0,0,0,33.25,76.2Z"/><path class="cls-5" d="M35.76,75.69a4.16,4.16,0,0,0-.95.51,4.56,4.56,0,0,0-.78.74A4.87,4.87,0,0,1,34.71,78a3,3,0,0,0,1.87-1.37A4.69,4.69,0,0,1,35.76,75.69Z"/><path class="cls-5" d="M35.29,74.72a4.57,4.57,0,0,0,.47,1A4.63,4.63,0,0,1,37,75.38c0-.08,0-.16,0-.25a2.9,2.9,0,0,0-.74-1.94,5.12,5.12,0,0,1-1.17.47A4.3,4.3,0,0,0,35.29,74.72Z"/><path class="cls-6" d="M33.35,78a3.08,3.08,0,0,0,.68.08,3,3,0,0,0,.68-.08A4.87,4.87,0,0,0,34,76.94,5.26,5.26,0,0,0,33.35,78Z"/><path class="cls-6" d="M32.88,72.38a2.91,2.91,0,0,0-1.09.81,5.3,5.3,0,0,0,1.17.47A5,5,0,0,0,32.88,72.38Z"/><path class="cls-6" d="M32.3,75.69a4.46,4.46,0,0,0-1.22-.31,2.93,2.93,0,0,0,.41,1.28A4.64,4.64,0,0,0,32.3,75.69Z"/><path class="cls-6" d="M35.19,72.38a4.63,4.63,0,0,0-.09,1.28,5.12,5.12,0,0,0,1.17-.47A2.88,2.88,0,0,0,35.19,72.38Z"/><path class="cls-6" d="M36.58,76.66A2.93,2.93,0,0,0,37,75.38a4.63,4.63,0,0,0-1.23.31A4.69,4.69,0,0,0,36.58,76.66Z"/><path class="cls-2" d="M153.88,121.38a2.91,2.91,0,0,1,1.15-.23,3,3,0,0,1,1.16.23c.44-2.23,2.37-4.47,5.2-6a15.27,15.27,0,0,0,.26-2.83c0-5.67-3-10.27-6.62-10.27s-6.62,4.6-6.62,10.27a15.27,15.27,0,0,0,.26,2.83C151.5,116.91,153.43,119.15,153.88,121.38Z"/><path class="cls-2" d="M152.08,124.38a1.9,1.9,0,0,1,0-.25,3,3,0,0,1,.74-1.94c-2-1.11-3.53-3.65-4.12-6.82a15,15,0,0,0-2.61-1.12c-5.4-1.76-10.68-.36-11.81,3.12s2.32,7.72,7.71,9.47a15.19,15.19,0,0,0,2.78.63C147.08,125.25,149.82,124.11,152.08,124.38Z"/><path class="cls-2" d="M154.35,127a3,3,0,0,1-1.86-1.37c-1.67,1.55-4.56,2.23-7.75,1.81a15.07,15.07,0,0,0-1.88,2.14c-3.33,4.59-3.63,10-.67,12.2s8.06.17,11.39-4.41A15.14,15.14,0,0,0,155,135C153.65,132,153.4,129.09,154.35,127Z"/><path class="cls-2" d="M157.58,125.66a3,3,0,0,1-1.87,1.37c.95,2.06.71,5-.68,7.92a16,16,0,0,0,1.46,2.45c3.33,4.58,8.43,6.56,11.39,4.41s2.65-7.61-.68-12.2a15.07,15.07,0,0,0-1.88-2.14C162.13,127.89,159.25,127.21,157.58,125.66Z"/><path class="cls-2" d="M175.82,117.37c-1.13-3.48-6.42-4.88-11.81-3.12a15.08,15.08,0,0,0-2.62,1.12c-.58,3.17-2.13,5.71-4.12,6.82a2.9,2.9,0,0,1,.74,1.94c0,.09,0,.17,0,.25,2.26-.27,5,.87,7.33,3.09a15,15,0,0,0,2.78-.63C173.49,125.09,177,120.85,175.82,117.37Z"/><path class="cls-3" d="M152.79,122.19a2.91,2.91,0,0,1,1.09-.81c-.45-2.23-2.38-4.47-5.21-6C149.26,118.54,150.8,121.08,152.79,122.19Z"/><path class="cls-3" d="M152.49,125.66a2.93,2.93,0,0,1-.41-1.28c-2.26-.27-5,.87-7.34,3.09C147.93,127.89,150.82,127.21,152.49,125.66Z"/><path class="cls-3" d="M155.71,127a3,3,0,0,1-.68.08,3.08,3.08,0,0,1-.68-.08c-.95,2.06-.7,5,.68,7.92C156.42,132,156.66,129.09,155.71,127Z"/><path class="cls-3" d="M156.19,121.38a2.88,2.88,0,0,1,1.08.81c2-1.11,3.54-3.65,4.12-6.82C158.56,116.91,156.63,119.15,156.19,121.38Z"/><path class="cls-3" d="M158,124.38a2.93,2.93,0,0,1-.41,1.28c1.67,1.55,4.55,2.23,7.74,1.81C163,125.25,160.25,124.11,158,124.38Z"/><path class="cls-4" d="M154,122.66a4.3,4.3,0,0,1-.19,1.06,4.13,4.13,0,0,1-.47,1,3.78,3.78,0,0,1,.95.51,4.22,4.22,0,0,1,.78.74,4.56,4.56,0,0,1,.78-.74,4.16,4.16,0,0,1,.95-.51,4.57,4.57,0,0,1-.47-1,4.3,4.3,0,0,1-.19-1.06,4.75,4.75,0,0,1-1.07.14A4.83,4.83,0,0,1,154,122.66Z"/><path class="cls-5" d="M154,122.66a4.83,4.83,0,0,0,1.07.14,4.75,4.75,0,0,0,1.07-.14,4.63,4.63,0,0,1,.09-1.28,3,3,0,0,0-1.16-.23,2.91,2.91,0,0,0-1.15.23A5,5,0,0,1,154,122.66Z"/><path class="cls-5" d="M153.77,123.72a4.3,4.3,0,0,0,.19-1.06,5.3,5.3,0,0,1-1.17-.47,3,3,0,0,0-.74,1.94,1.9,1.9,0,0,0,0,.25,4.46,4.46,0,0,1,1.22.31A4.13,4.13,0,0,0,153.77,123.72Z"/><path class="cls-5" d="M154.25,125.2a3.78,3.78,0,0,0-.95-.51,4.64,4.64,0,0,1-.81,1,3,3,0,0,0,1.86,1.37,5.26,5.26,0,0,1,.68-1.09A4.22,4.22,0,0,0,154.25,125.2Z"/><path class="cls-5" d="M156.76,124.69a4.16,4.16,0,0,0-.95.51,4.56,4.56,0,0,0-.78.74,4.87,4.87,0,0,1,.68,1.09,3,3,0,0,0,1.87-1.37A4.69,4.69,0,0,1,156.76,124.69Z"/><path class="cls-5" d="M156.29,123.72a4.57,4.57,0,0,0,.47,1,4.63,4.63,0,0,1,1.23-.31c0-.08,0-.16,0-.25a2.9,2.9,0,0,0-.74-1.94,5.12,5.12,0,0,1-1.17.47A4.3,4.3,0,0,0,156.29,123.72Z"/><path class="cls-6" d="M154.35,127a3.08,3.08,0,0,0,.68.08,3,3,0,0,0,.68-.08,4.87,4.87,0,0,0-.68-1.09A5.26,5.26,0,0,0,154.35,127Z"/><path class="cls-6" d="M153.88,121.38a2.91,2.91,0,0,0-1.09.81,5.3,5.3,0,0,0,1.17.47A5,5,0,0,0,153.88,121.38Z"/><path class="cls-6" d="M153.3,124.69a4.46,4.46,0,0,0-1.22-.31,2.93,2.93,0,0,0,.41,1.28A4.64,4.64,0,0,0,153.3,124.69Z"/><path class="cls-6" d="M156.19,121.38a4.63,4.63,0,0,0-.09,1.28,5.12,5.12,0,0,0,1.17-.47A2.88,2.88,0,0,0,156.19,121.38Z"/><path class="cls-6" d="M157.58,125.66a2.93,2.93,0,0,0,.41-1.28,4.63,4.63,0,0,0-1.23.31A4.69,4.69,0,0,0,157.58,125.66Z"/><path class="cls-2" d="M122.88,346.38a2.91,2.91,0,0,1,1.15-.23,3,3,0,0,1,1.16.23c.44-2.23,2.37-4.47,5.2-6a15.27,15.27,0,0,0,.26-2.83c0-5.67-3-10.27-6.62-10.27s-6.62,4.6-6.62,10.27a15.27,15.27,0,0,0,.26,2.83C120.5,341.91,122.43,344.15,122.88,346.38Z"/><path class="cls-2" d="M121.08,349.38a1.9,1.9,0,0,1,0-.25,3,3,0,0,1,.74-1.94c-2-1.11-3.53-3.65-4.12-6.82a15,15,0,0,0-2.61-1.12c-5.4-1.76-10.68-.36-11.81,3.12s2.32,7.72,7.71,9.47a15.19,15.19,0,0,0,2.78.63C116.08,350.25,118.82,349.11,121.08,349.38Z"/><path class="cls-2" d="M123.35,352a3,3,0,0,1-1.86-1.37c-1.67,1.55-4.56,2.23-7.75,1.81a15.07,15.07,0,0,0-1.88,2.14c-3.33,4.59-3.63,10.05-.67,12.2s8.06.17,11.39-4.41A15.14,15.14,0,0,0,124,360C122.65,357,122.4,354.09,123.35,352Z"/><path class="cls-2" d="M126.58,350.66a3,3,0,0,1-1.87,1.37c1,2.06.71,5-.68,7.92a16,16,0,0,0,1.46,2.45c3.33,4.58,8.43,6.56,11.39,4.41s2.65-7.61-.68-12.2a15.07,15.07,0,0,0-1.88-2.14C131.13,352.89,128.25,352.21,126.58,350.66Z"/><path class="cls-2" d="M144.82,342.37c-1.13-3.48-6.42-4.88-11.81-3.12a15.08,15.08,0,0,0-2.62,1.12c-.58,3.17-2.13,5.71-4.12,6.82a2.9,2.9,0,0,1,.74,1.94c0,.09,0,.17,0,.25,2.26-.27,5,.87,7.33,3.09a15,15,0,0,0,2.78-.63C142.49,350.09,146,345.85,144.82,342.37Z"/><path class="cls-3" d="M121.79,347.19a2.91,2.91,0,0,1,1.09-.81c-.45-2.23-2.38-4.47-5.21-6C118.26,343.54,119.8,346.08,121.79,347.19Z"/><path class="cls-3" d="M121.49,350.66a2.93,2.93,0,0,1-.41-1.28c-2.26-.27-5,.87-7.34,3.09C116.93,352.89,119.82,352.21,121.49,350.66Z"/><path class="cls-3" d="M124.71,352a3,3,0,0,1-.68.08,3.08,3.08,0,0,1-.68-.08c-.95,2.06-.7,5,.68,7.92C125.42,357,125.66,354.09,124.71,352Z"/><path class="cls-3" d="M125.19,346.38a2.88,2.88,0,0,1,1.08.81c2-1.11,3.54-3.65,4.12-6.82C127.56,341.91,125.63,344.15,125.19,346.38Z"/><path class="cls-3" d="M127,349.38a2.93,2.93,0,0,1-.41,1.28c1.67,1.55,4.55,2.23,7.74,1.81C132,350.25,129.25,349.11,127,349.38Z"/><path class="cls-4" d="M123,347.66a4.3,4.3,0,0,1-.19,1.06,4.13,4.13,0,0,1-.47,1,3.78,3.78,0,0,1,1,.51,4.22,4.22,0,0,1,.78.74,4.56,4.56,0,0,1,.78-.74,4.16,4.16,0,0,1,1-.51,4.57,4.57,0,0,1-.47-1,4.3,4.3,0,0,1-.19-1.06,4.75,4.75,0,0,1-1.07.14A4.83,4.83,0,0,1,123,347.66Z"/><path class="cls-5" d="M123,347.66a4.83,4.83,0,0,0,1.07.14,4.75,4.75,0,0,0,1.07-.14,4.63,4.63,0,0,1,.09-1.28,3,3,0,0,0-1.16-.23,2.91,2.91,0,0,0-1.15.23A5,5,0,0,1,123,347.66Z"/><path class="cls-5" d="M122.77,348.72a4.3,4.3,0,0,0,.19-1.06,5.3,5.3,0,0,1-1.17-.47,3,3,0,0,0-.74,1.94,1.9,1.9,0,0,0,0,.25,4.46,4.46,0,0,1,1.22.31A4.13,4.13,0,0,0,122.77,348.72Z"/><path class="cls-5" d="M123.25,350.2a3.78,3.78,0,0,0-1-.51,4.64,4.64,0,0,1-.81,1,3,3,0,0,0,1.86,1.37,5.26,5.26,0,0,1,.68-1.09A4.22,4.22,0,0,0,123.25,350.2Z"/><path class="cls-5" d="M125.76,349.69a4.16,4.16,0,0,0-1,.51,4.56,4.56,0,0,0-.78.74,4.87,4.87,0,0,1,.68,1.09,3,3,0,0,0,1.87-1.37A4.69,4.69,0,0,1,125.76,349.69Z"/><path class="cls-5" d="M125.29,348.72a4.57,4.57,0,0,0,.47,1,4.63,4.63,0,0,1,1.23-.31c0-.08,0-.16,0-.25a2.9,2.9,0,0,0-.74-1.94,5.12,5.12,0,0,1-1.17.47A4.3,4.3,0,0,0,125.29,348.72Z"/><path class="cls-6" d="M123.35,352a3.08,3.08,0,0,0,.68.08,3,3,0,0,0,.68-.08,4.87,4.87,0,0,0-.68-1.09A5.26,5.26,0,0,0,123.35,352Z"/><path class="cls-6" d="M122.88,346.38a2.91,2.91,0,0,0-1.09.81,5.3,5.3,0,0,0,1.17.47A5,5,0,0,0,122.88,346.38Z"/><path class="cls-6" d="M122.3,349.69a4.46,4.46,0,0,0-1.22-.31,2.93,2.93,0,0,0,.41,1.28A4.64,4.64,0,0,0,122.3,349.69Z"/><path class="cls-6" d="M125.19,346.38a4.63,4.63,0,0,0-.09,1.28,5.12,5.12,0,0,0,1.17-.47A2.88,2.88,0,0,0,125.19,346.38Z"/><path class="cls-6" d="M126.58,350.66a2.93,2.93,0,0,0,.41-1.28,4.63,4.63,0,0,0-1.23.31A4.69,4.69,0,0,0,126.58,350.66Z"/><path class="cls-7" d="M152.48,31.38a3,3,0,0,1,1.16-.23,2.91,2.91,0,0,1,1.15.23c.45-2.23,2.38-4.47,5.21-6a16.18,16.18,0,0,0,.26-2.83c0-5.67-3-10.27-6.62-10.27S147,16.87,147,22.54a16.18,16.18,0,0,0,.26,2.83C150.1,26.91,152,29.15,152.48,31.38Z"/><path class="cls-7" d="M150.68,34.38a2,2,0,0,1,0-.25,2.94,2.94,0,0,1,.73-1.94c-2-1.11-3.53-3.65-4.12-6.82a14.65,14.65,0,0,0-2.61-1.12c-5.39-1.76-10.68-.36-11.81,3.12s2.32,7.72,7.72,9.47a14.91,14.91,0,0,0,2.77.63C145.68,35.25,148.42,34.11,150.68,34.38Z"/><path class="cls-7" d="M153,37a3,3,0,0,1-1.87-1.37c-1.67,1.55-4.55,2.23-7.75,1.81a15,15,0,0,0-1.87,2.14c-3.34,4.59-3.64,10-.68,12.2s8.06.17,11.39-4.41A16,16,0,0,0,153.64,45C152.25,42,152,39.09,153,37Z"/><path class="cls-7" d="M156.18,35.66A3,3,0,0,1,154.31,37c.95,2.06.71,5-.67,7.92a15.14,15.14,0,0,0,1.45,2.45c3.33,4.58,8.43,6.56,11.39,4.41s2.66-7.61-.67-12.2a15.72,15.72,0,0,0-1.88-2.14C160.74,37.89,157.85,37.21,156.18,35.66Z"/><path class="cls-7" d="M174.42,27.37c-1.13-3.48-6.42-4.88-11.81-3.12A15,15,0,0,0,160,25.37c-.59,3.17-2.13,5.71-4.12,6.82a3,3,0,0,1,.74,1.94,1.9,1.9,0,0,1,0,.25c2.26-.27,5,.87,7.34,3.09a15.19,15.19,0,0,0,2.78-.63C172.1,35.09,175.55,30.85,174.42,27.37Z"/><path class="cls-8" d="M151.39,32.19a3,3,0,0,1,1.09-.81c-.44-2.23-2.38-4.47-5.21-6C147.86,28.54,149.41,31.08,151.39,32.19Z"/><path class="cls-8" d="M151.09,35.66a2.93,2.93,0,0,1-.41-1.28c-2.26-.27-5,.87-7.34,3.09C146.54,37.89,149.42,37.21,151.09,35.66Z"/><path class="cls-8" d="M154.31,37a2.93,2.93,0,0,1-.67.08A3,3,0,0,1,153,37c-1,2.06-.71,5,.68,7.92C155,42,155.26,39.09,154.31,37Z"/><path class="cls-8" d="M154.79,31.38a2.91,2.91,0,0,1,1.09.81c2-1.11,3.53-3.65,4.12-6.82C157.17,26.91,155.24,29.15,154.79,31.38Z"/><path class="cls-8" d="M156.59,34.38a2.93,2.93,0,0,1-.41,1.28c1.67,1.55,4.56,2.23,7.75,1.81C161.59,35.25,158.85,34.11,156.59,34.38Z"/><path class="cls-4" d="M152.57,32.66a4.82,4.82,0,0,1-.19,1.06,5.1,5.1,0,0,1-.47,1,4.16,4.16,0,0,1,1,.51,4.56,4.56,0,0,1,.78.74,4.5,4.5,0,0,1,.77-.74,4.16,4.16,0,0,1,1-.51,4.53,4.53,0,0,1-.46-1,4.31,4.31,0,0,1-.2-1.06,4.67,4.67,0,0,1-1.06.14A4.75,4.75,0,0,1,152.57,32.66Z"/><path class="cls-5" d="M152.57,32.66a4.75,4.75,0,0,0,1.07.14,4.67,4.67,0,0,0,1.06-.14,5.56,5.56,0,0,1,.09-1.28,2.91,2.91,0,0,0-1.15-.23,3,3,0,0,0-1.16.23A4.63,4.63,0,0,1,152.57,32.66Z"/><path class="cls-5" d="M152.38,33.72a4.82,4.82,0,0,0,.19-1.06,5.19,5.19,0,0,1-1.18-.47,2.94,2.94,0,0,0-.73,1.94,2,2,0,0,0,0,.25,4.63,4.63,0,0,1,1.23.31A5.1,5.1,0,0,0,152.38,33.72Z"/><path class="cls-5" d="M152.86,35.2a4.16,4.16,0,0,0-1-.51,5,5,0,0,1-.82,1A3,3,0,0,0,153,37a4.87,4.87,0,0,1,.68-1.09A4.56,4.56,0,0,0,152.86,35.2Z"/><path class="cls-5" d="M155.36,34.69a4.16,4.16,0,0,0-1,.51,4.5,4.5,0,0,0-.77.74,4.84,4.84,0,0,1,.67,1.09,3,3,0,0,0,1.87-1.37A5,5,0,0,1,155.36,34.69Z"/><path class="cls-5" d="M154.9,33.72a4.53,4.53,0,0,0,.46,1,4.63,4.63,0,0,1,1.23-.31,1.9,1.9,0,0,0,0-.25,3,3,0,0,0-.74-1.94,5.19,5.19,0,0,1-1.18.47A4.31,4.31,0,0,0,154.9,33.72Z"/><path class="cls-6" d="M153,37a3,3,0,0,0,.68.08,2.93,2.93,0,0,0,.67-.08,4.84,4.84,0,0,0-.67-1.09A4.87,4.87,0,0,0,153,37Z"/><path class="cls-6" d="M152.48,31.38a3,3,0,0,0-1.09.81,5.19,5.19,0,0,0,1.18.47A4.63,4.63,0,0,0,152.48,31.38Z"/><path class="cls-6" d="M151.91,34.69a4.63,4.63,0,0,0-1.23-.31,2.93,2.93,0,0,0,.41,1.28A5,5,0,0,0,151.91,34.69Z"/><path class="cls-6" d="M154.79,31.38a5.56,5.56,0,0,0-.09,1.28,5.19,5.19,0,0,0,1.18-.47A2.91,2.91,0,0,0,154.79,31.38Z"/><path class="cls-6" d="M156.18,35.66a2.93,2.93,0,0,0,.41-1.28,4.63,4.63,0,0,0-1.23.31A5,5,0,0,0,156.18,35.66Z"/><path class="cls-7" d="M238.48,231.38a3,3,0,0,1,1.16-.23,2.91,2.91,0,0,1,1.15.23c.45-2.23,2.38-4.47,5.21-6a16.18,16.18,0,0,0,.26-2.83c0-5.67-3-10.27-6.62-10.27s-6.63,4.6-6.63,10.27a16.18,16.18,0,0,0,.26,2.83C236.1,226.91,238,229.15,238.48,231.38Z"/><path class="cls-7" d="M236.68,234.38a2,2,0,0,1,0-.25,2.94,2.94,0,0,1,.73-1.94c-2-1.11-3.53-3.65-4.12-6.82a14.65,14.65,0,0,0-2.61-1.12c-5.39-1.76-10.68-.36-11.81,3.12s2.32,7.72,7.72,9.47a14.91,14.91,0,0,0,2.77.63C231.68,235.25,234.42,234.11,236.68,234.38Z"/><path class="cls-7" d="M239,237a3,3,0,0,1-1.87-1.37c-1.67,1.55-4.55,2.23-7.75,1.81a15,15,0,0,0-1.87,2.14c-3.34,4.59-3.64,10-.68,12.2s8.06.17,11.39-4.41a16,16,0,0,0,1.46-2.45C238.25,242,238,239.09,239,237Z"/><path class="cls-7" d="M242.18,235.66a3,3,0,0,1-1.87,1.37c.95,2.06.71,5-.67,7.92a15.14,15.14,0,0,0,1.45,2.45c3.33,4.58,8.43,6.56,11.39,4.41s2.66-7.61-.67-12.2a15.72,15.72,0,0,0-1.88-2.14C246.74,237.89,243.85,237.21,242.18,235.66Z"/><path class="cls-7" d="M260.42,227.37c-1.13-3.48-6.42-4.88-11.81-3.12a15,15,0,0,0-2.61,1.12c-.59,3.17-2.13,5.71-4.12,6.82a3,3,0,0,1,.74,1.94,1.9,1.9,0,0,1,0,.25c2.26-.27,5,.87,7.34,3.09a15.19,15.19,0,0,0,2.78-.63C258.1,235.09,261.55,230.85,260.42,227.37Z"/><path class="cls-8" d="M237.39,232.19a3,3,0,0,1,1.09-.81c-.44-2.23-2.38-4.47-5.21-6C233.86,228.54,235.41,231.08,237.39,232.19Z"/><path class="cls-8" d="M237.09,235.66a2.93,2.93,0,0,1-.41-1.28c-2.26-.27-5,.87-7.34,3.09C232.54,237.89,235.42,237.21,237.09,235.66Z"/><path class="cls-8" d="M240.31,237a2.93,2.93,0,0,1-.67.08A3,3,0,0,1,239,237c-1,2.06-.71,5,.68,7.92C241,242,241.26,239.09,240.31,237Z"/><path class="cls-8" d="M240.79,231.38a2.91,2.91,0,0,1,1.09.81c2-1.11,3.53-3.65,4.12-6.82C243.17,226.91,241.24,229.15,240.79,231.38Z"/><path class="cls-8" d="M242.59,234.38a2.93,2.93,0,0,1-.41,1.28c1.67,1.55,4.56,2.23,7.75,1.81C247.59,235.25,244.85,234.11,242.59,234.38Z"/><path class="cls-4" d="M238.57,232.66a4.82,4.82,0,0,1-.19,1.06,5.1,5.1,0,0,1-.47,1,4.16,4.16,0,0,1,1,.51,4.56,4.56,0,0,1,.78.74,4.5,4.5,0,0,1,.77-.74,4.16,4.16,0,0,1,1-.51,4.53,4.53,0,0,1-.46-1,4.31,4.31,0,0,1-.2-1.06,4.67,4.67,0,0,1-1.06.14A4.75,4.75,0,0,1,238.57,232.66Z"/><path class="cls-5" d="M238.57,232.66a4.75,4.75,0,0,0,1.07.14,4.67,4.67,0,0,0,1.06-.14,5.56,5.56,0,0,1,.09-1.28,2.91,2.91,0,0,0-1.15-.23,3,3,0,0,0-1.16.23A4.63,4.63,0,0,1,238.57,232.66Z"/><path class="cls-5" d="M238.38,233.72a4.82,4.82,0,0,0,.19-1.06,5.19,5.19,0,0,1-1.18-.47,2.94,2.94,0,0,0-.73,1.94,2,2,0,0,0,0,.25,4.63,4.63,0,0,1,1.23.31A5.1,5.1,0,0,0,238.38,233.72Z"/><path class="cls-5" d="M238.86,235.2a4.16,4.16,0,0,0-1-.51,5,5,0,0,1-.82,1A3,3,0,0,0,239,237a4.87,4.87,0,0,1,.68-1.09A4.56,4.56,0,0,0,238.86,235.2Z"/><path class="cls-5" d="M241.36,234.69a4.16,4.16,0,0,0-1,.51,4.5,4.5,0,0,0-.77.74,4.84,4.84,0,0,1,.67,1.09,3,3,0,0,0,1.87-1.37A5,5,0,0,1,241.36,234.69Z"/><path class="cls-5" d="M240.9,233.72a4.53,4.53,0,0,0,.46,1,4.63,4.63,0,0,1,1.23-.31,1.9,1.9,0,0,0,0-.25,3,3,0,0,0-.74-1.94,5.19,5.19,0,0,1-1.18.47A4.31,4.31,0,0,0,240.9,233.72Z"/><path class="cls-6" d="M239,237a3,3,0,0,0,.68.08,2.93,2.93,0,0,0,.67-.08,4.84,4.84,0,0,0-.67-1.09A4.87,4.87,0,0,0,239,237Z"/><path class="cls-6" d="M238.48,231.38a3,3,0,0,0-1.09.81,5.19,5.19,0,0,0,1.18.47A4.63,4.63,0,0,0,238.48,231.38Z"/><path class="cls-6" d="M237.91,234.69a4.63,4.63,0,0,0-1.23-.31,2.93,2.93,0,0,0,.41,1.28A5,5,0,0,0,237.91,234.69Z"/><path class="cls-6" d="M240.79,231.38a5.56,5.56,0,0,0-.09,1.28,5.19,5.19,0,0,0,1.18-.47A2.91,2.91,0,0,0,240.79,231.38Z"/><path class="cls-6" d="M242.18,235.66a2.93,2.93,0,0,0,.41-1.28,4.63,4.63,0,0,0-1.23.31A5,5,0,0,0,242.18,235.66Z"/><path class="cls-7" d="M104.48,211.38a3,3,0,0,1,1.16-.23,2.91,2.91,0,0,1,1.15.23c.45-2.23,2.38-4.47,5.21-6a16.18,16.18,0,0,0,.26-2.83c0-5.67-3-10.27-6.62-10.27S99,196.87,99,202.54a16.18,16.18,0,0,0,.26,2.83C102.1,206.91,104,209.15,104.48,211.38Z"/><path class="cls-7" d="M102.68,214.38a2,2,0,0,1,0-.25,2.94,2.94,0,0,1,.73-1.94c-2-1.11-3.53-3.65-4.12-6.82a14.65,14.65,0,0,0-2.61-1.12c-5.39-1.76-10.68-.36-11.81,3.12s2.32,7.72,7.72,9.47a14.91,14.91,0,0,0,2.77.63C97.68,215.25,100.42,214.11,102.68,214.38Z"/><path class="cls-7" d="M105,217a3,3,0,0,1-1.87-1.37c-1.67,1.55-4.55,2.23-7.75,1.81a15,15,0,0,0-1.87,2.14c-3.34,4.59-3.64,10-.68,12.2s8.06.17,11.39-4.41a16,16,0,0,0,1.46-2.45C104.25,222,104,219.09,105,217Z"/><path class="cls-7" d="M108.18,215.66a3,3,0,0,1-1.87,1.37c1,2.06.71,5-.67,7.92a15.14,15.14,0,0,0,1.45,2.45c3.33,4.58,8.43,6.56,11.39,4.41s2.66-7.61-.67-12.2a15.72,15.72,0,0,0-1.88-2.14C112.74,217.89,109.85,217.21,108.18,215.66Z"/><path class="cls-7" d="M126.42,207.37c-1.13-3.48-6.42-4.88-11.81-3.12a15,15,0,0,0-2.61,1.12c-.59,3.17-2.13,5.71-4.12,6.82a3,3,0,0,1,.74,1.94,1.9,1.9,0,0,1,0,.25c2.26-.27,5,.87,7.34,3.09a15.19,15.19,0,0,0,2.78-.63C124.1,215.09,127.55,210.85,126.42,207.37Z"/><path class="cls-8" d="M103.39,212.19a3,3,0,0,1,1.09-.81c-.44-2.23-2.38-4.47-5.21-6C99.86,208.54,101.41,211.08,103.39,212.19Z"/><path class="cls-8" d="M103.09,215.66a2.93,2.93,0,0,1-.41-1.28c-2.26-.27-5,.87-7.34,3.09C98.54,217.89,101.42,217.21,103.09,215.66Z"/><path class="cls-8" d="M106.31,217a2.93,2.93,0,0,1-.67.08A3,3,0,0,1,105,217c-.95,2.06-.71,5,.68,7.92C107,222,107.26,219.09,106.31,217Z"/><path class="cls-8" d="M106.79,211.38a2.91,2.91,0,0,1,1.09.81c2-1.11,3.53-3.65,4.12-6.82C109.17,206.91,107.24,209.15,106.79,211.38Z"/><path class="cls-8" d="M108.59,214.38a2.93,2.93,0,0,1-.41,1.28c1.67,1.55,4.56,2.23,7.75,1.81C113.59,215.25,110.85,214.11,108.59,214.38Z"/><path class="cls-4" d="M104.57,212.66a4.82,4.82,0,0,1-.19,1.06,5.1,5.1,0,0,1-.47,1,4.16,4.16,0,0,1,1,.51,4.56,4.56,0,0,1,.78.74,4.5,4.5,0,0,1,.77-.74,4.16,4.16,0,0,1,1-.51,4.53,4.53,0,0,1-.46-1,4.31,4.31,0,0,1-.2-1.06,4.67,4.67,0,0,1-1.06.14A4.75,4.75,0,0,1,104.57,212.66Z"/><path class="cls-5" d="M104.57,212.66a4.75,4.75,0,0,0,1.07.14,4.67,4.67,0,0,0,1.06-.14,5.56,5.56,0,0,1,.09-1.28,2.91,2.91,0,0,0-1.15-.23,3,3,0,0,0-1.16.23A4.63,4.63,0,0,1,104.57,212.66Z"/><path class="cls-5" d="M104.38,213.72a4.82,4.82,0,0,0,.19-1.06,5.19,5.19,0,0,1-1.18-.47,2.94,2.94,0,0,0-.73,1.94,2,2,0,0,0,0,.25,4.63,4.63,0,0,1,1.23.31A5.1,5.1,0,0,0,104.38,213.72Z"/><path class="cls-5" d="M104.86,215.2a4.16,4.16,0,0,0-1-.51,5,5,0,0,1-.82,1A3,3,0,0,0,105,217a4.87,4.87,0,0,1,.68-1.09A4.56,4.56,0,0,0,104.86,215.2Z"/><path class="cls-5" d="M107.36,214.69a4.16,4.16,0,0,0-1,.51,4.5,4.5,0,0,0-.77.74,4.84,4.84,0,0,1,.67,1.09,3,3,0,0,0,1.87-1.37A5,5,0,0,1,107.36,214.69Z"/><path class="cls-5" d="M106.9,213.72a4.53,4.53,0,0,0,.46,1,4.63,4.63,0,0,1,1.23-.31,1.9,1.9,0,0,0,0-.25,3,3,0,0,0-.74-1.94,5.19,5.19,0,0,1-1.18.47A4.31,4.31,0,0,0,106.9,213.72Z"/><path class="cls-6" d="M105,217a3,3,0,0,0,.68.08,2.93,2.93,0,0,0,.67-.08,4.84,4.84,0,0,0-.67-1.09A4.87,4.87,0,0,0,105,217Z"/><path class="cls-6" d="M104.48,211.38a3,3,0,0,0-1.09.81,5.19,5.19,0,0,0,1.18.47A4.63,4.63,0,0,0,104.48,211.38Z"/><path class="cls-6" d="M103.91,214.69a4.63,4.63,0,0,0-1.23-.31,2.93,2.93,0,0,0,.41,1.28A5,5,0,0,0,103.91,214.69Z"/><path class="cls-6" d="M106.79,211.38a5.56,5.56,0,0,0-.09,1.28,5.19,5.19,0,0,0,1.18-.47A2.91,2.91,0,0,0,106.79,211.38Z"/><path class="cls-6" d="M108.18,215.66a2.93,2.93,0,0,0,.41-1.28,4.63,4.63,0,0,0-1.23.31A5,5,0,0,0,108.18,215.66Z"/><path class="cls-7" d="M40.48,171.38a3,3,0,0,1,1.16-.23,2.91,2.91,0,0,1,1.15.23c.45-2.23,2.38-4.47,5.21-6a16.18,16.18,0,0,0,.26-2.83c0-5.67-3-10.27-6.62-10.27S35,156.87,35,162.54a16.18,16.18,0,0,0,.26,2.83C38.1,166.91,40,169.15,40.48,171.38Z"/><path class="cls-7" d="M38.68,174.38a2,2,0,0,1,0-.25,2.94,2.94,0,0,1,.73-1.94c-2-1.11-3.53-3.65-4.12-6.82a14.65,14.65,0,0,0-2.61-1.12c-5.39-1.76-10.68-.36-11.81,3.12s2.32,7.72,7.72,9.47a14.91,14.91,0,0,0,2.77.63C33.68,175.25,36.42,174.11,38.68,174.38Z"/><path class="cls-7" d="M41,177a3,3,0,0,1-1.87-1.37c-1.67,1.55-4.55,2.23-7.75,1.81a15,15,0,0,0-1.87,2.14c-3.34,4.59-3.64,10-.68,12.2s8.06.17,11.39-4.41A16,16,0,0,0,41.64,185C40.25,182,40,179.09,41,177Z"/><path class="cls-7" d="M44.18,175.66A3,3,0,0,1,42.31,177c.95,2.06.71,5-.67,7.92a15.14,15.14,0,0,0,1.45,2.45c3.33,4.58,8.43,6.56,11.39,4.41s2.66-7.61-.67-12.2a15.72,15.72,0,0,0-1.88-2.14C48.74,177.89,45.85,177.21,44.18,175.66Z"/><path class="cls-7" d="M62.42,167.37c-1.13-3.48-6.42-4.88-11.81-3.12A15,15,0,0,0,48,165.37c-.59,3.17-2.13,5.71-4.12,6.82a3,3,0,0,1,.74,1.94,1.9,1.9,0,0,1,0,.25c2.26-.27,5,.87,7.34,3.09a15.19,15.19,0,0,0,2.78-.63C60.1,175.09,63.55,170.85,62.42,167.37Z"/><path class="cls-8" d="M39.39,172.19a3,3,0,0,1,1.09-.81c-.44-2.23-2.38-4.47-5.21-6C35.86,168.54,37.41,171.08,39.39,172.19Z"/><path class="cls-8" d="M39.09,175.66a2.93,2.93,0,0,1-.41-1.28c-2.26-.27-5,.87-7.34,3.09C34.54,177.89,37.42,177.21,39.09,175.66Z"/><path class="cls-8" d="M42.31,177a2.93,2.93,0,0,1-.67.08A3,3,0,0,1,41,177c-1,2.06-.71,5,.68,7.92C43,182,43.26,179.09,42.31,177Z"/><path class="cls-8" d="M42.79,171.38a2.91,2.91,0,0,1,1.09.81c2-1.11,3.53-3.65,4.12-6.82C45.17,166.91,43.24,169.15,42.79,171.38Z"/><path class="cls-8" d="M44.59,174.38a2.93,2.93,0,0,1-.41,1.28c1.67,1.55,4.56,2.23,7.75,1.81C49.59,175.25,46.85,174.11,44.59,174.38Z"/><path class="cls-4" d="M40.57,172.66a4.82,4.82,0,0,1-.19,1.06,5.1,5.1,0,0,1-.47,1,4.16,4.16,0,0,1,1,.51,4.56,4.56,0,0,1,.78.74,4.5,4.5,0,0,1,.77-.74,4.16,4.16,0,0,1,1-.51,4.53,4.53,0,0,1-.46-1,4.31,4.31,0,0,1-.2-1.06,4.67,4.67,0,0,1-1.06.14A4.75,4.75,0,0,1,40.57,172.66Z"/><path class="cls-5" d="M40.57,172.66a4.75,4.75,0,0,0,1.07.14,4.67,4.67,0,0,0,1.06-.14,5.56,5.56,0,0,1,.09-1.28,2.91,2.91,0,0,0-1.15-.23,3,3,0,0,0-1.16.23A4.63,4.63,0,0,1,40.57,172.66Z"/><path class="cls-5" d="M40.38,173.72a4.82,4.82,0,0,0,.19-1.06,5.19,5.19,0,0,1-1.18-.47,2.94,2.94,0,0,0-.73,1.94,2,2,0,0,0,0,.25,4.63,4.63,0,0,1,1.23.31A5.1,5.1,0,0,0,40.38,173.72Z"/><path class="cls-5" d="M40.86,175.2a4.16,4.16,0,0,0-1-.51,5,5,0,0,1-.82,1A3,3,0,0,0,41,177a4.87,4.87,0,0,1,.68-1.09A4.56,4.56,0,0,0,40.86,175.2Z"/><path class="cls-5" d="M43.36,174.69a4.16,4.16,0,0,0-1,.51,4.5,4.5,0,0,0-.77.74,4.84,4.84,0,0,1,.67,1.09,3,3,0,0,0,1.87-1.37A5,5,0,0,1,43.36,174.69Z"/><path class="cls-5" d="M42.9,173.72a4.53,4.53,0,0,0,.46,1,4.63,4.63,0,0,1,1.23-.31,1.9,1.9,0,0,0,0-.25,3,3,0,0,0-.74-1.94,5.19,5.19,0,0,1-1.18.47A4.31,4.31,0,0,0,42.9,173.72Z"/><path class="cls-6" d="M41,177a3,3,0,0,0,.68.08,2.93,2.93,0,0,0,.67-.08,4.84,4.84,0,0,0-.67-1.09A4.87,4.87,0,0,0,41,177Z"/><path class="cls-6" d="M40.48,171.38a3,3,0,0,0-1.09.81,5.19,5.19,0,0,0,1.18.47A4.63,4.63,0,0,0,40.48,171.38Z"/><path class="cls-6" d="M39.91,174.69a4.63,4.63,0,0,0-1.23-.31,2.93,2.93,0,0,0,.41,1.28A5,5,0,0,0,39.91,174.69Z"/><path class="cls-6" d="M42.79,171.38a5.56,5.56,0,0,0-.09,1.28,5.19,5.19,0,0,0,1.18-.47A2.91,2.91,0,0,0,42.79,171.38Z"/><path class="cls-6" d="M44.18,175.66a2.93,2.93,0,0,0,.41-1.28,4.63,4.63,0,0,0-1.23.31A5,5,0,0,0,44.18,175.66Z"/><path class="cls-2" d="M194.88,176.38a2.91,2.91,0,0,1,1.15-.23,3,3,0,0,1,1.16.23c.44-2.23,2.37-4.47,5.2-6a15.27,15.27,0,0,0,.26-2.83c0-5.67-3-10.27-6.62-10.27s-6.62,4.6-6.62,10.27a15.27,15.27,0,0,0,.26,2.83C192.5,171.91,194.43,174.15,194.88,176.38Z"/><path class="cls-2" d="M193.08,179.38a1.9,1.9,0,0,1,0-.25,3,3,0,0,1,.74-1.94c-2-1.11-3.53-3.65-4.12-6.82a15,15,0,0,0-2.61-1.12c-5.4-1.76-10.68-.36-11.81,3.12s2.32,7.72,7.71,9.47a15.19,15.19,0,0,0,2.78.63C188.08,180.25,190.82,179.11,193.08,179.38Z"/><path class="cls-2" d="M195.35,182a3,3,0,0,1-1.86-1.37c-1.67,1.55-4.56,2.23-7.75,1.81a15.07,15.07,0,0,0-1.88,2.14c-3.33,4.59-3.63,10-.67,12.2s8.06.17,11.39-4.41A15.14,15.14,0,0,0,196,190C194.65,187,194.4,184.09,195.35,182Z"/><path class="cls-2" d="M198.58,180.66a3,3,0,0,1-1.87,1.37c.95,2.06.71,5-.68,7.92a16,16,0,0,0,1.46,2.45c3.33,4.58,8.43,6.56,11.39,4.41s2.65-7.61-.68-12.2a15.07,15.07,0,0,0-1.88-2.14C203.13,182.89,200.25,182.21,198.58,180.66Z"/><path class="cls-2" d="M216.82,172.37c-1.13-3.48-6.42-4.88-11.81-3.12a15.08,15.08,0,0,0-2.62,1.12c-.58,3.17-2.13,5.71-4.12,6.82a2.9,2.9,0,0,1,.74,1.94c0,.09,0,.17,0,.25,2.26-.27,5,.87,7.33,3.09a15,15,0,0,0,2.78-.63C214.49,180.09,218,175.85,216.82,172.37Z"/><path class="cls-3" d="M193.79,177.19a2.91,2.91,0,0,1,1.09-.81c-.45-2.23-2.38-4.47-5.21-6C190.26,173.54,191.8,176.08,193.79,177.19Z"/><path class="cls-3" d="M193.49,180.66a2.93,2.93,0,0,1-.41-1.28c-2.26-.27-5,.87-7.34,3.09C188.93,182.89,191.82,182.21,193.49,180.66Z"/><path class="cls-3" d="M196.71,182a3,3,0,0,1-.68.08,3.08,3.08,0,0,1-.68-.08c-.95,2.06-.7,5,.68,7.92C197.42,187,197.66,184.09,196.71,182Z"/><path class="cls-3" d="M197.19,176.38a2.88,2.88,0,0,1,1.08.81c2-1.11,3.54-3.65,4.12-6.82C199.56,171.91,197.63,174.15,197.19,176.38Z"/><path class="cls-3" d="M199,179.38a2.93,2.93,0,0,1-.41,1.28c1.67,1.55,4.55,2.23,7.74,1.81C204,180.25,201.25,179.11,199,179.38Z"/><path class="cls-4" d="M195,177.66a4.3,4.3,0,0,1-.19,1.06,4.13,4.13,0,0,1-.47,1,3.78,3.78,0,0,1,.95.51,4.22,4.22,0,0,1,.78.74,4.56,4.56,0,0,1,.78-.74,4.16,4.16,0,0,1,.95-.51,4.57,4.57,0,0,1-.47-1,4.3,4.3,0,0,1-.19-1.06,4.75,4.75,0,0,1-1.07.14A4.83,4.83,0,0,1,195,177.66Z"/><path class="cls-5" d="M195,177.66a4.83,4.83,0,0,0,1.07.14,4.75,4.75,0,0,0,1.07-.14,4.63,4.63,0,0,1,.09-1.28,3,3,0,0,0-1.16-.23,2.91,2.91,0,0,0-1.15.23A5,5,0,0,1,195,177.66Z"/><path class="cls-5" d="M194.77,178.72a4.3,4.3,0,0,0,.19-1.06,5.3,5.3,0,0,1-1.17-.47,3,3,0,0,0-.74,1.94,1.9,1.9,0,0,0,0,.25,4.46,4.46,0,0,1,1.22.31A4.13,4.13,0,0,0,194.77,178.72Z"/><path class="cls-5" d="M195.25,180.2a3.78,3.78,0,0,0-.95-.51,4.64,4.64,0,0,1-.81,1,3,3,0,0,0,1.86,1.37,5.26,5.26,0,0,1,.68-1.09A4.22,4.22,0,0,0,195.25,180.2Z"/><path class="cls-5" d="M197.76,179.69a4.16,4.16,0,0,0-.95.51,4.56,4.56,0,0,0-.78.74,4.87,4.87,0,0,1,.68,1.09,3,3,0,0,0,1.87-1.37A4.69,4.69,0,0,1,197.76,179.69Z"/><path class="cls-5" d="M197.29,178.72a4.57,4.57,0,0,0,.47,1,4.63,4.63,0,0,1,1.23-.31c0-.08,0-.16,0-.25a2.9,2.9,0,0,0-.74-1.94,5.12,5.12,0,0,1-1.17.47A4.3,4.3,0,0,0,197.29,178.72Z"/><path class="cls-6" d="M195.35,182a3.08,3.08,0,0,0,.68.08,3,3,0,0,0,.68-.08,4.87,4.87,0,0,0-.68-1.09A5.26,5.26,0,0,0,195.35,182Z"/><path class="cls-6" d="M194.88,176.38a2.91,2.91,0,0,0-1.09.81,5.3,5.3,0,0,0,1.17.47A5,5,0,0,0,194.88,176.38Z"/><path class="cls-6" d="M194.3,179.69a4.46,4.46,0,0,0-1.22-.31,2.93,2.93,0,0,0,.41,1.28A4.64,4.64,0,0,0,194.3,179.69Z"/><path class="cls-6" d="M197.19,176.38a4.63,4.63,0,0,0-.09,1.28,5.12,5.12,0,0,0,1.17-.47A2.88,2.88,0,0,0,197.19,176.38Z"/><path class="cls-6" d="M198.58,180.66a2.93,2.93,0,0,0,.41-1.28,4.63,4.63,0,0,0-1.23.31A4.69,4.69,0,0,0,198.58,180.66Z"/><path class="cls-2" d="M104.88,86.38a2.91,2.91,0,0,1,1.15-.23,3,3,0,0,1,1.16.23c.44-2.23,2.37-4.47,5.2-6a15.27,15.27,0,0,0,.26-2.83c0-5.67-3-10.27-6.62-10.27s-6.62,4.6-6.62,10.27a15.27,15.27,0,0,0,.26,2.83C102.5,81.91,104.43,84.15,104.88,86.38Z"/><path class="cls-2" d="M103.08,89.38a1.9,1.9,0,0,1,0-.25,3,3,0,0,1,.74-1.94c-2-1.11-3.53-3.65-4.12-6.82a15,15,0,0,0-2.61-1.12c-5.4-1.76-10.68-.36-11.81,3.12s2.32,7.72,7.71,9.47a15.19,15.19,0,0,0,2.78.63C98.08,90.25,100.82,89.11,103.08,89.38Z"/><path class="cls-2" d="M105.35,92a3,3,0,0,1-1.86-1.37c-1.67,1.55-4.56,2.23-7.75,1.81a15.07,15.07,0,0,0-1.88,2.14c-3.33,4.59-3.63,10-.67,12.2s8.06.17,11.39-4.41A15.14,15.14,0,0,0,106,100C104.65,97,104.4,94.09,105.35,92Z"/><path class="cls-2" d="M108.58,90.66A3,3,0,0,1,106.71,92c1,2.06.71,5-.68,7.92a16,16,0,0,0,1.46,2.45c3.33,4.58,8.43,6.56,11.39,4.41s2.65-7.61-.68-12.2a15.07,15.07,0,0,0-1.88-2.14C113.13,92.89,110.25,92.21,108.58,90.66Z"/><path class="cls-2" d="M126.82,82.37c-1.13-3.48-6.42-4.88-11.81-3.12a15.08,15.08,0,0,0-2.62,1.12c-.58,3.17-2.13,5.71-4.12,6.82a2.9,2.9,0,0,1,.74,1.94c0,.09,0,.17,0,.25,2.26-.27,5,.87,7.33,3.09a15,15,0,0,0,2.78-.63C124.49,90.09,128,85.85,126.82,82.37Z"/><path class="cls-3" d="M103.79,87.19a2.91,2.91,0,0,1,1.09-.81c-.45-2.23-2.38-4.47-5.21-6C100.26,83.54,101.8,86.08,103.79,87.19Z"/><path class="cls-3" d="M103.49,90.66a2.93,2.93,0,0,1-.41-1.28c-2.26-.27-5,.87-7.34,3.09C98.93,92.89,101.82,92.21,103.49,90.66Z"/><path class="cls-3" d="M106.71,92a3,3,0,0,1-.68.08,3.08,3.08,0,0,1-.68-.08c-.95,2.06-.7,5,.68,7.92C107.42,97,107.66,94.09,106.71,92Z"/><path class="cls-3" d="M107.19,86.38a2.88,2.88,0,0,1,1.08.81c2-1.11,3.54-3.65,4.12-6.82C109.56,81.91,107.63,84.15,107.19,86.38Z"/><path class="cls-3" d="M109,89.38a2.93,2.93,0,0,1-.41,1.28c1.67,1.55,4.55,2.23,7.74,1.81C114,90.25,111.25,89.11,109,89.38Z"/><path class="cls-4" d="M105,87.66a4.3,4.3,0,0,1-.19,1.06,4.13,4.13,0,0,1-.47,1,3.78,3.78,0,0,1,1,.51,4.22,4.22,0,0,1,.78.74,4.56,4.56,0,0,1,.78-.74,4.16,4.16,0,0,1,1-.51,4.57,4.57,0,0,1-.47-1,4.3,4.3,0,0,1-.19-1.06,4.75,4.75,0,0,1-1.07.14A4.83,4.83,0,0,1,105,87.66Z"/><path class="cls-5" d="M105,87.66a4.83,4.83,0,0,0,1.07.14,4.75,4.75,0,0,0,1.07-.14,4.63,4.63,0,0,1,.09-1.28,3,3,0,0,0-1.16-.23,2.91,2.91,0,0,0-1.15.23A5,5,0,0,1,105,87.66Z"/><path class="cls-5" d="M104.77,88.72a4.3,4.3,0,0,0,.19-1.06,5.3,5.3,0,0,1-1.17-.47,3,3,0,0,0-.74,1.94,1.9,1.9,0,0,0,0,.25,4.46,4.46,0,0,1,1.22.31A4.13,4.13,0,0,0,104.77,88.72Z"/><path class="cls-5" d="M105.25,90.2a3.78,3.78,0,0,0-1-.51,4.64,4.64,0,0,1-.81,1A3,3,0,0,0,105.35,92a5.26,5.26,0,0,1,.68-1.09A4.22,4.22,0,0,0,105.25,90.2Z"/><path class="cls-5" d="M107.76,89.69a4.16,4.16,0,0,0-1,.51,4.56,4.56,0,0,0-.78.74,4.87,4.87,0,0,1,.68,1.09,3,3,0,0,0,1.87-1.37A4.69,4.69,0,0,1,107.76,89.69Z"/><path class="cls-5" d="M107.29,88.72a4.57,4.57,0,0,0,.47,1,4.63,4.63,0,0,1,1.23-.31c0-.08,0-.16,0-.25a2.9,2.9,0,0,0-.74-1.94,5.12,5.12,0,0,1-1.17.47A4.3,4.3,0,0,0,107.29,88.72Z"/><path class="cls-6" d="M105.35,92a3.08,3.08,0,0,0,.68.08,3,3,0,0,0,.68-.08,4.87,4.87,0,0,0-.68-1.09A5.26,5.26,0,0,0,105.35,92Z"/><path class="cls-6" d="M104.88,86.38a2.91,2.91,0,0,0-1.09.81,5.3,5.3,0,0,0,1.17.47A5,5,0,0,0,104.88,86.38Z"/><path class="cls-6" d="M104.3,89.69a4.46,4.46,0,0,0-1.22-.31,2.93,2.93,0,0,0,.41,1.28A4.64,4.64,0,0,0,104.3,89.69Z"/><path class="cls-6" d="M107.19,86.38a4.63,4.63,0,0,0-.09,1.28,5.12,5.12,0,0,0,1.17-.47A2.88,2.88,0,0,0,107.19,86.38Z"/><path class="cls-6" d="M108.58,90.66a2.93,2.93,0,0,0,.41-1.28,4.63,4.63,0,0,0-1.23.31A4.69,4.69,0,0,0,108.58,90.66Z"/><path class="cls-7" d="M140.73,275.17a3.13,3.13,0,0,1,1.18,0,3,3,0,0,1,1.08.47c.9-2.09,3.26-3.89,6.34-4.81a15.89,15.89,0,0,0,.85-2.71c1.17-5.55-.78-10.66-4.35-11.42s-7.44,3.12-8.61,8.67a14.73,14.73,0,0,0-.33,2.83C139.34,270.3,140.76,272.89,140.73,275.17Z"/><path class="cls-7" d="M138.35,277.72a2,2,0,0,1,0-.24,3,3,0,0,1,1.12-1.75c-1.71-1.5-2.7-4.3-2.61-7.52a16.17,16.17,0,0,0-2.33-1.65c-4.91-2.83-10.37-2.55-12.2.61s.67,8,5.58,10.87a16.58,16.58,0,0,0,2.59,1.19C133.28,277.54,136.19,277,138.35,277.72Z"/><path class="cls-7" d="M140,280.79a3,3,0,0,1-1.54-1.72c-2,1.16-4.92,1.23-8,.16a15.51,15.51,0,0,0-2.28,1.7c-4.21,3.8-5.64,9.08-3.19,11.79s7.85,1.85,12.06-2a15.68,15.68,0,0,0,1.93-2.09C138.3,285.55,138.67,282.61,140,280.79Z"/><path class="cls-7" d="M143.46,280.12a3,3,0,0,1-2.1.95c.5,2.22-.35,5.05-2.31,7.61a15.23,15.23,0,0,0,.91,2.69c2.31,5.18,6.89,8.17,10.23,6.68s4.18-6.89,1.87-12.07a15.16,15.16,0,0,0-1.39-2.48C147.46,283.25,144.78,282,143.46,280.12Z"/><path class="cls-7" d="M163,275.79c-.39-3.63-5.27-6.1-10.91-5.5a15.32,15.32,0,0,0-2.79.55c-1.23,3-3.27,5.14-5.44,5.82a3,3,0,0,1,.32,2,1.69,1.69,0,0,1-.08.24c2.27.21,4.71,1.89,6.54,4.55a16,16,0,0,0,2.85,0C159.15,282.86,163.41,279.43,163,275.79Z"/><path class="cls-8" d="M139.5,275.73a2.87,2.87,0,0,1,1.23-.56c0-2.28-1.39-4.87-3.84-7C136.8,271.43,137.79,274.23,139.5,275.73Z"/><path class="cls-8" d="M138.49,279.07a2.91,2.91,0,0,1-.14-1.35c-2.16-.73-5.07-.18-7.82,1.51C133.57,280.3,136.53,280.23,138.49,279.07Z"/><path class="cls-8" d="M141.36,281.07a3.22,3.22,0,0,1-.69-.06,3.45,3.45,0,0,1-.64-.22c-1.36,1.82-1.73,4.76-1,7.89C141,286.12,141.86,283.29,141.36,281.07Z"/><path class="cls-8" d="M143,275.65a2.91,2.91,0,0,1,.9,1c2.17-.68,4.21-2.83,5.44-5.82C146.25,271.76,143.89,273.56,143,275.65Z"/><path class="cls-8" d="M144.13,279a2.79,2.79,0,0,1-.67,1.17c1.32,1.86,4,3.13,7.21,3.38C148.84,280.84,146.4,279.16,144.13,279Z"/><path class="cls-4" d="M140.55,276.43a4.1,4.1,0,0,1-.4,1,4.6,4.6,0,0,1-.66.85,4.22,4.22,0,0,1,.82.7,4.53,4.53,0,0,1,.61.89,4.49,4.49,0,0,1,.91-.57,4.26,4.26,0,0,1,1-.3,4.25,4.25,0,0,1-.26-1.05,4.34,4.34,0,0,1,0-1.08,4.25,4.25,0,0,1-1.07-.07A4.61,4.61,0,0,1,140.55,276.43Z"/><path class="cls-5" d="M140.55,276.43a4.61,4.61,0,0,0,1,.37,4.25,4.25,0,0,0,1.07.07,5,5,0,0,1,.35-1.22,3,3,0,0,0-1.08-.47,3.13,3.13,0,0,0-1.18,0A4.41,4.41,0,0,1,140.55,276.43Z"/><path class="cls-5" d="M140.15,277.43a4.1,4.1,0,0,0,.4-1,5.06,5.06,0,0,1-1.05-.7,3,3,0,0,0-1.12,1.75,2,2,0,0,0,0,.24,5,5,0,0,1,1.14.56A4.6,4.6,0,0,0,140.15,277.43Z"/><path class="cls-5" d="M140.31,279a4.22,4.22,0,0,0-.82-.7,5.12,5.12,0,0,1-1,.79,3,3,0,0,0,1.54,1.72,4.57,4.57,0,0,1,.89-.92A4.53,4.53,0,0,0,140.31,279Z"/><path class="cls-5" d="M142.87,279a4.26,4.26,0,0,0-1,.3,4.49,4.49,0,0,0-.91.57,5.2,5.2,0,0,1,.44,1.2,3,3,0,0,0,2.1-.95A4.63,4.63,0,0,1,142.87,279Z"/><path class="cls-5" d="M142.61,278a4.25,4.25,0,0,0,.26,1.05,4.81,4.81,0,0,1,1.26-.05,1.69,1.69,0,0,0,.08-.24,3,3,0,0,0-.32-2,4.49,4.49,0,0,1-1.25.21A4.34,4.34,0,0,0,142.61,278Z"/><path class="cls-6" d="M140,280.79a3.45,3.45,0,0,0,.64.22,3.22,3.22,0,0,0,.69.06,5.2,5.2,0,0,0-.44-1.2A4.57,4.57,0,0,0,140,280.79Z"/><path class="cls-6" d="M140.73,275.17a2.87,2.87,0,0,0-1.23.56,5.06,5.06,0,0,0,1.05.7A4.41,4.41,0,0,0,140.73,275.17Z"/><path class="cls-6" d="M139.49,278.28a5,5,0,0,0-1.14-.56,2.91,2.91,0,0,0,.14,1.35A5.12,5.12,0,0,0,139.49,278.28Z"/><path class="cls-6" d="M143,275.65a5,5,0,0,0-.35,1.22,4.49,4.49,0,0,0,1.25-.21A2.91,2.91,0,0,0,143,275.65Z"/><path class="cls-6" d="M143.46,280.12a2.79,2.79,0,0,0,.67-1.17,4.81,4.81,0,0,0-1.26.05A4.63,4.63,0,0,0,143.46,280.12Z"/></svg>