<svg id="Layer_1" data-name="Layer 1" xmlns="http://www.w3.org/2000/svg" viewBox="0 0 1838.07 1183.3"><defs><style>.cls-1{fill:#bcb5a5;}.cls-2{fill:#aba38e;}.cls-3{fill:#807a6b;}.cls-4{fill:#333;}.cls-5{fill:#565247;}</style></defs><title>Artboard 1</title><polygon class="cls-1" points="1298.9 1076.35 221.95 1012.11 273.26 60.76 1350.21 124.99 1298.9 1076.35"/><polygon class="cls-2" points="1240.55 1072.74 165.36 983.74 238.56 33.81 1313.74 122.81 1240.55 1072.74"/><polygon class="cls-3" points="1177.2 1068.15 104.83 949.88 193.48 99.73 1276.26 120.58 1177.2 1068.15"/><path class="cls-4" d="M664.18,1007.14v-51H403.32a35.54,35.54,0,0,1-33-48.69c59.35-148.54,54.52-254.05,36.9-325.31-14.63-59.19-50.06-143.19-58-278,0-.55-.07-1.1-.1-1.65-2.95-51.85,42.8-93,94.11-84.93a907.92,907.92,0,0,0,111,10.58c120.6,4,210.05-17.43,245-25,104.7-22.68,264.81-38.82,507.34-9.17a37.74,37.74,0,0,0,40.72-26.55A185.61,185.61,0,0,0,1346.05,56a40.42,40.42,0,0,0-36.45-27.76c-60.06-3-143.81-5.54-243.42-3.11-174,4.25-246.72,19.91-397,22a2368,2368,0,0,1-320-17.5v-.5a1429.37,1429.37,0,0,0-354,0v.5h-.5v168h.5v997.5h1846v-188Z"/><polygon class="cls-5" points="726.35 1080.47 754.25 1083.42 755.22 1083.02 755.51 1083.23 800.23 1065.48 799.91 1064.54 749.94 1078.65 729.21 1066.67 740.66 1011.32 682.69 1011.96 692.23 1053.35 672.48 1085.39 604.8 1109.92 605.07 1110.89 651.93 1101.21 636.95 1141.27 637.87 1141.68 659.32 1099.68 677.97 1095.83 679.42 1095.52 681.06 1093.69 697.33 1075.52 702.43 1097.66 703.89 1103.99 706.1 1105.38 767.3 1143.76 767.95 1142.99 723.47 1094.4 726.35 1080.47"/></svg>