<svg id="Layer_1" data-name="Layer 1" xmlns="http://www.w3.org/2000/svg" viewBox="0 0 913.67 316.3"><defs><style>.cls-1{fill:#b3b3b3;stroke:#4d4d4d;}.cls-1,.cls-3,.cls-4{stroke-miterlimit:10;stroke-width:7px;}.cls-2{fill:#999;}.cls-3{fill:none;}.cls-3,.cls-4{stroke:#666;}.cls-4{fill:gray;}</style></defs><title>Artboard 1</title><path class="cls-1" d="M573.77,155.7c39.19,5.2,64.7,12.76,67.12,21.24a64,64,0,0,0-73-96.32,113.28,113.28,0,0,1,5.9,75.08Z"/><path class="cls-1" d="M363.48,76A77.48,77.48,0,0,0,253.25,177.1c2.7-10.81,42.92-20.15,101.24-25,13.95-1.17,28.94-2.08,44.7-2.69a78.89,78.89,0,0,0,.4-7.88A77.43,77.43,0,0,0,363.48,76Z"/><path class="cls-1" d="M567.87,80.62A113,113,0,0,0,363.48,76a77.43,77.43,0,0,1,36.11,65.5,78.89,78.89,0,0,1-.4,7.88c15.32-.6,31.37-.92,47.9-.92,27.43,0,53.53.88,77.19,2.46,18.1,1.2,34.76,2.82,49.49,4.77a113.28,113.28,0,0,0-5.9-75.08Z"/><path class="cls-2" d="M563.55,74.29C571.09,80,582.09,78,582.09,78S592.38,88.36,600,111.87c8.52,26.46,4.67,42.73,3.13,49.14-11-4-18.47-1.51-29.5-5.5,3.13-6.22,3.15-22,3.5-35.5C577.75,94.38,567.88,79.51,563.55,74.29Z"/><path class="cls-3" d="M573.77,155.7c39.19,5.2,64.7,12.76,67.12,21.24a64,64,0,0,0-73-96.32,113.28,113.28,0,0,1,5.9,75.08Z"/><path class="cls-3" d="M363.48,76A77.48,77.48,0,0,0,253.25,177.1c2.7-10.81,42.92-20.15,101.24-25,13.95-1.17,28.94-2.08,44.7-2.69a78.89,78.89,0,0,0,.4-7.88A77.43,77.43,0,0,0,363.48,76Z"/><path class="cls-2" d="M362.59,75.51c3.23.38,7.27-9.72,7.27-9.72S394.49,79,409.59,98.51a97.79,97.79,0,0,1,20.19,50l-30.19,0a71.36,71.36,0,0,0-3-31C388.52,93.17,368.44,79,362.59,75.51Z"/><path class="cls-3" d="M567.87,80.62A113,113,0,0,0,363.48,76a77.43,77.43,0,0,1,36.11,65.5,78.89,78.89,0,0,1-.4,7.88c15.32-.6,31.37-.92,47.9-.92,27.43,0,53.53.88,77.19,2.46,18.1,1.2,34.76,2.82,49.49,4.77a113.28,113.28,0,0,0-5.9-75.08Z"/><path class="cls-4" d="M573.77,155.7c-14.73-1.95-31.39-3.57-49.49-4.77-23.66-1.58-49.76-2.46-77.19-2.46-16.53,0-32.58.32-47.9.92-15.76.61-30.75,1.52-44.7,2.69-58.32,4.87-98.54,14.21-101.24,25a79.17,79.17,0,0,0,4.55,7.71C271.16,194,311.87,201.5,366,205.33q9.12.64,18.71,1.15c19.56,1,40.53,1.57,62.34,1.57,36.55,0,70.74-1.55,99.92-4.25q9.93-.92,19-2c31.14-3.71,54.7-8.86,66.54-14.79a64.56,64.56,0,0,0,8.29-10.06C638.47,168.46,613,160.9,573.77,155.7Z"/><path class="cls-1" d="M855.49,231.11c23,3,37.91,7.47,39.33,12.44A37.51,37.51,0,0,0,852,187.11a66.53,66.53,0,0,1,3.46,44Z"/><path class="cls-1" d="M732.26,184.41a45.41,45.41,0,0,0-64.6,59.24c1.59-6.34,25.15-11.81,59.33-14.67,8.18-.68,17-1.21,26.19-1.57a44.1,44.1,0,0,0,.24-4.62A45.36,45.36,0,0,0,732.26,184.41Z"/><path class="cls-1" d="M852,187.11a66.23,66.23,0,0,0-119.77-2.7,45.36,45.36,0,0,1,21.16,38.38,44.1,44.1,0,0,1-.24,4.62c9-.35,18.38-.54,28.07-.54,16.08,0,31.37.51,45.24,1.44,10.6.71,20.37,1.65,29,2.8a66.53,66.53,0,0,0-3.46-44Z"/><path class="cls-2" d="M849.5,183.4c4.41,3.35,10.86,2.18,10.86,2.18s6,6.07,10.47,19.84c5,15.51,2.74,25,1.84,28.8-6.47-2.34-10.82-.89-17.29-3.22,1.84-3.65,1.84-12.92,2-20.81C857.82,195.17,852,186.46,849.5,183.4Z"/><path class="cls-3" d="M855.49,231.11c23,3,37.91,7.47,39.33,12.44A37.51,37.51,0,0,0,852,187.11a66.53,66.53,0,0,1,3.46,44Z"/><path class="cls-3" d="M732.26,184.41a45.41,45.41,0,0,0-64.6,59.24c1.59-6.34,25.15-11.81,59.33-14.67,8.18-.68,17-1.21,26.19-1.57a44.1,44.1,0,0,0,.24-4.62A45.36,45.36,0,0,0,732.26,184.41Z"/><path class="cls-2" d="M731.73,184.12c1.9.22,4.27-5.7,4.27-5.7s14.43,7.72,23.28,19.17a57.31,57.31,0,0,1,11.83,29.31H753.42a41.81,41.81,0,0,0-1.76-18.16C746.93,194.46,735.16,186.13,731.73,184.12Z"/><path class="cls-3" d="M852,187.11a66.23,66.23,0,0,0-119.77-2.7,45.36,45.36,0,0,1,21.16,38.38,44.1,44.1,0,0,1-.24,4.62c9-.35,18.38-.54,28.07-.54,16.08,0,31.37.51,45.24,1.44,10.6.71,20.37,1.65,29,2.8a66.53,66.53,0,0,0-3.46-44Z"/><path class="cls-4" d="M855.49,231.11c-8.63-1.15-18.4-2.09-29-2.8-13.87-.93-29.16-1.44-45.24-1.44-9.69,0-19.09.19-28.07.54-9.23.36-18,.89-26.19,1.57-34.18,2.86-57.74,8.33-59.33,14.67a45.29,45.29,0,0,0,2.67,4.51c7.83,5.36,31.68,9.79,63.43,12,3.56.25,7.21.48,11,.67,11.47.6,23.75.92,36.53.92,21.42,0,41.45-.91,58.56-2.49q5.82-.54,11.16-1.18c18.25-2.17,32-5.19,39-8.66a37.75,37.75,0,0,0,4.86-5.9C893.4,238.58,878.45,234.15,855.49,231.11Z"/><path class="cls-1" d="M205.49,272.11c23,3,37.91,7.47,39.33,12.44A37.51,37.51,0,0,0,202,228.11a66.53,66.53,0,0,1,3.46,44Z"/><path class="cls-1" d="M82.26,225.41a45.41,45.41,0,0,0-64.6,59.24C19.25,278.31,42.81,272.84,77,270c8.18-.68,17-1.21,26.19-1.57a44.1,44.1,0,0,0,.24-4.62A45.36,45.36,0,0,0,82.26,225.41Z"/><path class="cls-1" d="M202,228.11a66.23,66.23,0,0,0-119.77-2.7,45.36,45.36,0,0,1,21.16,38.38,44.1,44.1,0,0,1-.24,4.62c9-.35,18.38-.54,28.07-.54,16.08,0,31.37.51,45.24,1.44,10.6.71,20.37,1.65,29,2.8a66.53,66.53,0,0,0-3.46-44Z"/><path class="cls-2" d="M199.5,224.4c4.41,3.35,10.86,2.18,10.86,2.18s6,6.07,10.47,19.84c5,15.51,2.74,25,1.84,28.8-6.47-2.34-10.82-.89-17.29-3.22,1.84-3.65,1.84-12.92,2.05-20.81C207.82,236.17,202,227.46,199.5,224.4Z"/><path class="cls-3" d="M205.49,272.11c23,3,37.91,7.47,39.33,12.44A37.51,37.51,0,0,0,202,228.11a66.53,66.53,0,0,1,3.46,44Z"/><path class="cls-3" d="M82.26,225.41a45.41,45.41,0,0,0-64.6,59.24C19.25,278.31,42.81,272.84,77,270c8.18-.68,17-1.21,26.19-1.57a44.1,44.1,0,0,0,.24-4.62A45.36,45.36,0,0,0,82.26,225.41Z"/><path class="cls-2" d="M81.73,225.12c1.9.22,4.27-5.7,4.27-5.7s14.43,7.72,23.28,19.17a57.31,57.31,0,0,1,11.83,29.31H103.42a41.81,41.81,0,0,0-1.76-18.16C96.93,235.46,85.16,227.13,81.73,225.12Z"/><path class="cls-3" d="M202,228.11a66.23,66.23,0,0,0-119.77-2.7,45.36,45.36,0,0,1,21.16,38.38,44.1,44.1,0,0,1-.24,4.62c9-.35,18.38-.54,28.07-.54,16.08,0,31.37.51,45.24,1.44,10.6.71,20.37,1.65,29,2.8a66.53,66.53,0,0,0-3.46-44Z"/><path class="cls-4" d="M205.49,272.11c-8.63-1.15-18.4-2.09-29-2.8-13.87-.93-29.16-1.44-45.24-1.44-9.69,0-19.09.19-28.07.54-9.23.36-18,.89-26.19,1.57-34.18,2.86-57.74,8.33-59.33,14.67a45.29,45.29,0,0,0,2.67,4.51c7.83,5.36,31.68,9.79,63.43,12,3.56.25,7.21.48,11,.67,11.47.6,23.75.92,36.53.92,21.42,0,41.45-.91,58.56-2.49q5.82-.54,11.16-1.18c18.25-2.17,32.05-5.19,39-8.66a37.75,37.75,0,0,0,4.86-5.9C243.4,279.58,228.45,275.15,205.49,272.11Z"/></svg>